<svg xmlns="http://www.w3.org/2000/svg" viewBox="0 0 96.17 26.4"><defs><style>.cls-1{fill:#f7f7f7;}</style></defs><title>TIMS-logo</title><g id="Nav"><path class="cls-1" d="M22.44,1.41V7.3a.33.33,0,0,1-.32.32H15.68a.31.31,0,0,0-.32.31V24.77a.32.32,0,0,1-.32.31H8.39a.31.31,0,0,1-.32-.31V7.93a.32.32,0,0,0-.32-.31H1.32A.32.32,0,0,1,1,7.3V1.41a.32.32,0,0,1,.32-.32h20.8A.33.33,0,0,1,22.44,1.41Z"/><rect class="cls-1" x="25.72" y="1.09" width="7.29" height="23.99" rx="0.33"/><path class="cls-1" d="M86.63,25.85a12.93,12.93,0,0,1-8.73-2.93.25.25,0,0,1-.09-.19V17.55a.23.23,0,0,1,.38-.19,9.81,9.81,0,0,0,3.53,1.89,9,9,0,0,0,3.55.64,3.78,3.78,0,0,0,2-.47,1.6,1.6,0,0,0,.21-2.6,5.38,5.38,0,0,0-2-.78l-3.31-.91a5.58,5.58,0,0,1-3.59-2.22,6.81,6.81,0,0,1-1.35-4.47A7.47,7.47,0,0,1,78.4,4.37a7.86,7.86,0,0,1,3.18-2.79,10.43,10.43,0,0,1,4.71-1,12.88,12.88,0,0,1,4.31.76,15.09,15.09,0,0,1,3.68,1.94.26.26,0,0,1,.09.29l-1.71,4.2a.24.24,0,0,1-.31.13c-.54-.23-1.95-.82-2.81-1.15a5.15,5.15,0,0,0-2.46-.58,3.67,3.67,0,0,0-2,.49,2.18,2.18,0,0,0-.84,1.72,1.2,1.2,0,0,0,.48,1,5.1,5.1,0,0,0,1.6.68l2.64.8a9,9,0,0,1,4.62,2.61A7.19,7.19,0,0,1,95,18.11a6.92,6.92,0,0,1-2.34,5.52A8.38,8.38,0,0,1,86.63,25.85Z"/><path class="cls-1" d="M72.65,2.9c1.26,1.71,1.88,4.33,1.88,7.84V25a.11.11,0,0,1-.1.11H66.65a.11.11,0,0,1-.11-.11V11a6,6,0,0,0-.6-3.09,2.17,2.17,0,0,0-2-.95,3,3,0,0,0-2.61,1.33A6.5,6.5,0,0,0,60.4,12V25a.1.1,0,0,1-.1.11H52.52a.11.11,0,0,1-.11-.11V11a5.88,5.88,0,0,0-.61-3.09,2.22,2.22,0,0,0-2-.95,2.92,2.92,0,0,0-2.58,1.33A6.58,6.58,0,0,0,46.32,12V25a.11.11,0,0,1-.1.11h-7.9a.11.11,0,0,1-.11-.11c0-1.61.22-21.43,0-23.91A.11.11,0,0,1,38.33,1h7.25a.11.11,0,0,1,.1.11V4a.1.1,0,0,0,.19,0,7.93,7.93,0,0,1,2.86-2.66,8.4,8.4,0,0,1,4.21-1A6.42,6.42,0,0,1,59.4,4.53a.1.1,0,0,0,.18,0,9.1,9.1,0,0,1,2.51-2.66,8.74,8.74,0,0,1,6-1.47A6.22,6.22,0,0,1,72.65,2.9Z"/></g></svg>